<svg width="1026" height="132" viewBox="0 0 1026 132" fill="none" xmlns="http://www.w3.org/2000/svg">
<path d="M36.62 53.24C37.1603 54.9104 38.1346 56.4073 39.4432 57.5776C40.7519 58.7478 42.348 59.5495 44.0681 59.9004C45.7883 60.2514 47.5708 60.139 49.2333 59.575C50.8958 59.0109 52.3786 58.0153 53.53 56.69C56.6882 59.7025 59.0312 63.4664 60.34 67.63C61.6561 63.4697 63.998 59.7074 67.15 56.69C68.0024 57.7114 69.0516 58.5507 70.2352 59.1579C71.4188 59.7651 72.7125 60.1279 74.0393 60.2245C75.366 60.321 76.6987 60.1495 77.9577 59.7201C79.2168 59.2907 80.3765 58.6122 81.3678 57.725C82.359 56.8379 83.1615 55.7602 83.7274 54.5563C84.2933 53.3524 84.6111 52.0469 84.6617 50.7176C84.7123 49.3883 84.4947 48.0624 84.022 46.8189C83.5492 45.5755 82.831 44.4399 81.9101 43.48C82.6255 42.3613 83.4978 41.3511 84.5 40.48C84.3134 40.1 84.1134 39.73 83.9 39.37C78.4233 40.343 73.3229 42.8136 69.1643 46.5079C65.0058 50.2022 61.9515 54.976 60.34 60.3C58.7594 55.0666 55.7832 50.3625 51.7311 46.6927C47.679 43.023 42.704 40.526 37.34 39.47C37.08 39.92 36.8401 40.38 36.6101 40.85C37.446 41.6375 38.1785 42.5279 38.79 43.5C37.5974 44.7854 36.7679 46.3647 36.3866 48.0762C36.0053 49.7878 36.0858 51.5699 36.62 53.24V53.24Z" fill="#184D9D"/>
<path d="M72.19 103.69C72.19 80.69 87.57 70.25 87.57 70.25C87.57 70.25 72.19 77.7701 60.68 77.7701C49.17 77.7701 37.53 69.05 37.53 69.05V92.1301C37.53 107.97 48.38 118.38 60.17 125.01H80.08C76 119.34 72.19 111.84 72.19 103.69Z" fill="#184D9D"/>
<path d="M28.8699 92.13V48.81C28.8699 47.68 28.8699 46.59 28.9999 45.55C28.8381 40.0269 29.2909 34.503 30.3499 29.08C31.2658 30.1738 32.3492 31.1154 33.5599 31.87C40.7899 21.42 54.4599 19.93 60.6399 19.93C66.8199 19.93 80.2599 21.39 87.5299 31.6C88.5791 30.8947 89.5249 30.0465 90.3399 29.08C91.1067 33.197 91.568 37.365 91.7199 41.55C92.1944 43.9405 92.4255 46.3729 92.4099 48.81C92.4138 55.2711 93.162 61.7102 94.6399 68C107.2 87.39 115.32 108.66 120.29 125H125.63V24C125.63 17.6348 123.101 11.5303 118.6 7.02943C114.1 2.52856 107.995 0 101.63 0H24.6299C18.2647 0 12.1602 2.52856 7.65932 7.02943C3.15845 11.5303 0.629883 17.6348 0.629883 24V101C0.629883 107.365 3.15845 113.47 7.65932 117.971C12.1602 122.471 18.2647 125 24.6299 125H43.9999C39.2341 120.955 35.4105 115.918 32.7969 110.24C30.1833 104.562 28.843 98.3806 28.8699 92.13V92.13Z" fill="#184D9D"/>
<path d="M60.3399 45.52C65.5199 34.83 72.7399 35.18 79.5399 34.25C77.4765 32.5172 74.8837 31.5401 72.1899 31.48C69.9401 31.483 67.7225 32.0149 65.7162 33.0329C63.7099 34.0508 61.971 35.5262 60.6399 37.34L60.4999 37.16L60.3399 37.33C58.7246 35.542 56.8744 33.9811 54.8399 32.69C53.0257 31.8883 51.0634 31.476 49.0799 31.48C46.3505 31.5448 43.7267 32.5477 41.6499 34.32C48.2999 35.17 55.2899 35.1 60.3399 45.52Z" fill="#184D9D"/>
<path d="M90.9999 79.89C90.9999 79.89 77.3799 91.95 81.4799 106.64C83.3109 113.368 86.5565 119.627 90.9999 125H93.9999C92.5964 120.129 91.7049 115.126 91.3399 110.07C93.6469 115.207 96.2755 120.194 99.2099 125H102.79C100.845 118.966 99.3044 112.809 98.1799 106.57C98.1799 106.57 103.76 115.48 110.06 125H112C109.8 118.34 107.21 110.93 104.8 105.12C100.965 96.3138 96.346 87.8699 90.9999 79.89V79.89Z" fill="#184D9D"/>
<path d="M314.83 124.78C312.06 92.86 309.29 61.13 306.15 29.4L266.86 124.78H257.63L217.63 28.29L206.38 124.78H196.2L209.67 11.69V10C209.67 6.86002 197.77 3.54002 197.77 0.400024H230.88C242.14 32.5 255.79 63.87 268.88 95.23L307.07 0.400024H325.33C329.39 41.91 333.08 83.4 337.88 124.75L314.83 124.78Z" fill="#184D9D"/>
<path d="M379.81 124.78C379.99 96.5501 380.36 68.5101 380.36 40.2801C380.36 27.0001 380.36 13.7201 379.99 0.430054H402.87C402.87 41.9401 403.05 83.2701 403.05 124.78H379.81Z" fill="#184D9D"/>
<path d="M536.6 0.430046H547.85L548 131.05C535.64 117.77 523.28 104.3 511.11 90.65C493.03 70.35 473.84 50.8001 456.5 29.7701V124.77H445.46C445.46 93.0301 445.64 46.77 445.64 15.08C445.64 5.30005 431.99 4.91004 430.97 0.420044H460.22C469.44 12.6 479.77 24.04 489.55 35.66C504.55 53.37 521.47 69.4201 536.6 87.3201V0.430046Z" fill="#184D9D"/>
<path d="M590.76 124.78V0.430054H656.44L661.44 12.98C651.44 11.5 641.33 11.5001 631.18 11.5001H613.45V56.5001H622.31C632.359 56.5902 642.402 56.0357 652.38 54.84L652 68.3201C642.587 67.5934 633.177 67.2267 623.77 67.2201C620.27 67.2201 616.77 67.4 613.26 67.59V113.71H635.4C646.84 113.71 658.46 113.71 669.71 111.71L665.1 124.81L590.76 124.78Z" fill="#184D9D"/>
<path d="M772 124.78C760.71 106 734.9 63.2001 734.9 63.2001C734.89 63.1806 734.885 63.1592 734.885 63.1376C734.885 63.1159 734.89 63.0945 734.9 63.0751C734.91 63.0557 734.924 63.0389 734.941 63.0258C734.958 63.0128 734.979 63.004 735 63.0001C751.24 62.8801 760 52.2101 760 36.0701C760 20.5701 748.93 11.5301 734 11.5301C731.78 11.5301 729.57 11.5301 727.35 11.7201V124.78H704.85L704.66 0.430054H739.35C760.35 0.430054 781.96 11.1301 781.96 34.7501C781.96 50.0601 773.48 60.2101 759.27 64.8201C771.63 85.3001 785.65 104.67 798.38 124.82L772 124.78Z" fill="#184D9D"/>
<path d="M854.93 126.44C853.27 121.64 851.61 116.84 849.76 112.23C835.38 74.6 819.14 37.7001 804.2 0.430054H828.73C840.17 32.9001 853.45 64.63 866.37 96.37L905.48 0.430054H916.18L864.18 126.43L854.93 126.44Z" fill="#184D9D"/>
<path d="M999 124.78C994.2 111.31 988.67 98.21 983.13 84.93H940.52L923.36 124.78H909.89L963.76 0.25H971.51C977.6 18.14 985.71 35.12 993.28 52.25C1003.61 76.61 1014.28 100.77 1025.01 124.76L999 124.78ZM961.55 33.27L945.67 72H977.77L961.55 33.27Z" fill="#184D9D"/>
</svg>
