<svg viewBox="0 0 532 680" fill="none" xmlns="http://www.w3.org/2000/svg">
  <path
    d="M153.08 226.29C163.08 257.43 203.52 265.66 224.95 240.94C238.353 253.75 248.309 269.733 253.9 287.41C259.497 269.724 269.473 253.739 282.9 240.94C304.33 265.66 344.72 257.43 354.77 226.29C357.06 219.186 357.421 211.602 355.815 204.313C354.209 197.024 350.694 190.293 345.63 184.81C348.642 180.004 352.349 175.67 356.63 171.95C355.82 170.35 354.95 168.78 354.05 167.24C330.777 171.371 309.104 181.868 291.434 197.567C273.765 213.267 260.79 233.555 253.95 256.18C247.216 233.931 234.549 213.935 217.31 198.34C200.071 182.745 178.911 172.139 156.1 167.66C154.99 169.57 153.96 171.53 152.99 173.51C156.55 176.868 159.669 180.665 162.27 184.81C157.196 190.287 153.671 197.016 152.056 204.305C150.441 211.594 150.794 219.182 153.08 226.29V226.29Z"
    fill="#184D9D" />
  <path
    d="M304.25 440.68C304.25 342.77 369.61 298.57 369.61 298.57C369.61 298.57 304.25 330.57 255.35 330.57C206.25 330.57 156.95 293.49 156.95 293.49V391.6C156.95 458.9 203.08 503.14 253.18 531.34H337.79C320.53 507.22 304.25 475.31 304.25 440.68Z"
    fill="#184D9D" />
  <path
    d="M120.12 391.58V207.45C120.12 202.64 120.31 198.03 120.67 193.59C119.697 173.87 121.61 150.537 126.41 123.59C130.315 128.218 134.917 132.209 140.05 135.42C170.78 91 228.91 84.67 255.15 84.67C281.15 84.67 338.55 90.89 369.47 134.3C373.91 131.29 377.917 127.687 381.38 123.59C384.643 141.088 386.612 158.803 387.27 176.59C389.262 186.755 390.237 197.092 390.18 207.45C390.18 232.13 393.33 264.06 399.66 288.82C453.05 371.25 487.55 461.66 508.66 531.32H531.34V102.11C531.34 75.0322 520.585 49.0632 501.44 29.9144C482.295 10.7656 456.328 0.00531149 429.25 7.83541e-06H102.15C88.7374 -0.00524636 75.4551 2.63203 63.0619 7.76118C50.6687 12.8903 39.4075 20.4109 29.9215 29.8932C20.4354 39.3755 12.9105 50.6338 7.77649 63.025C2.64248 75.4161 -1.02912e-06 88.6974 0 102.11V429.21C-1.02912e-06 442.623 2.64248 455.904 7.77649 468.295C12.9105 480.686 20.4354 491.945 29.9215 501.427C39.4075 510.909 50.6687 518.43 63.0619 523.559C75.4551 528.688 88.7374 531.325 102.15 531.32H184.31C129.24 483.16 120.12 425.29 120.12 391.58Z"
    fill="#184D9D" />
  <path
    d="M253.9 193.44C275.9 148.04 306.61 149.5 335.48 145.56C326.33 138.3 315.66 133.8 304.25 133.8C294.69 133.818 285.268 136.078 276.74 140.399C268.213 144.72 260.818 150.981 255.15 158.68L254.57 157.93L253.9 158.65C247.026 151.053 239.154 144.423 230.5 138.94C222.797 135.541 214.469 133.79 206.05 133.8C194.5 133.8 183.69 138.42 174.46 145.8C202.7 149.46 232.43 149.16 253.9 193.44Z"
    fill="#184D9D" />
  <path
    d="M384.14 339.54C384.14 339.54 326.25 390.79 343.69 453.21C351.53 481.834 365.374 508.46 384.3 531.32H397C391.045 510.609 387.265 489.334 385.72 467.84C395.49 489.681 406.629 510.883 419.07 531.32H434.3C426.022 505.683 419.484 479.517 414.73 453C414.73 453 438.41 490.89 465.18 531.37H473.27C463.93 503.06 452.92 471.53 442.68 446.87C419.69 391.45 384.14 339.54 384.14 339.54Z"
    fill="#184D9D" />
  <path
    d="M81.5101 675.9C79.8001 656.08 78.0801 636.38 76.1301 616.68L51.7301 675.9H46.0001L21.1501 616L14.1501 675.9H7.8501L16.2101 605.69V604.69C16.2101 602.74 8.8201 600.69 8.8201 598.69H29.4001C36.4001 618.62 44.8601 638.09 52.9901 657.56L76.7001 598.7H88.0001C90.5201 624.47 92.8101 650.24 95.7901 675.9H81.5101Z"
    fill="#184D9D" />
  <path
    d="M121.86 675.9C121.97 658.38 122.2 640.97 122.2 623.44C122.2 615.2 122.2 606.95 121.97 598.7H136.17C136.17 624.47 136.29 650.13 136.29 675.9H121.86Z"
    fill="#184D9D" />
  <path
    d="M219.2 598.7H226.2L226.31 679.79C218.64 671.55 210.96 663.19 203.4 654.71C192.18 642.11 180.27 629.97 169.5 616.91V675.91H162.63C162.63 656.21 162.74 627.51 162.74 607.81C162.74 601.74 154.26 601.5 153.63 598.71H171.79C177.52 606.27 183.93 613.37 190 620.59C199.28 631.59 209.82 641.59 219.21 652.66L219.2 598.7Z"
    fill="#184D9D" />
  <path
    d="M252.83 675.9V598.7H293.6L296.7 606.49C290.468 605.722 284.188 605.415 277.91 605.57H266.91V633.52H272.4C278.638 633.586 284.875 633.252 291.07 632.52L290.84 640.88C285 640.42 279.16 640.19 273.32 640.19C271.14 640.19 268.97 640.31 266.79 640.42V669H280.54C287.64 669 294.85 669 301.84 667.74L299 675.9H252.83Z"
    fill="#184D9D" />
  <path
    d="M365.32 675.9C358.32 664.22 342.32 637.67 342.32 637.67C342.311 637.656 342.305 637.64 342.305 637.623C342.304 637.606 342.308 637.59 342.317 637.575C342.325 637.561 342.337 637.549 342.352 637.541C342.367 637.533 342.383 637.529 342.4 637.53C352.48 637.45 357.89 630.83 357.89 620.81C357.89 611.19 351.02 605.57 341.74 605.57C340.36 605.57 338.99 605.57 337.62 605.69V675.9H323.62L323.51 598.7H345.04C358.1 598.7 371.5 605.35 371.5 620.01C371.5 629.51 366.23 635.81 357.41 638.68C365.08 651.39 373.79 663.42 381.69 675.9H365.32Z"
    fill="#184D9D" />
  <path
    d="M416.84 676.93C415.84 673.93 414.77 670.93 413.63 668.11C404.69 644.75 394.63 621.84 385.34 598.7H400.57C407.67 618.86 415.92 638.56 423.94 658.26L448.22 598.7H454.86L422.56 676.93H416.84Z"
    fill="#184D9D" />
  <path
    d="M506.27 675.9C503.27 667.54 499.86 659.41 496.42 651.16H470L459.31 675.9H451L484.45 598.59H489.26C493.04 609.7 498.08 620.23 502.77 630.89C509.19 646.01 515.83 661.01 522.47 675.89L506.27 675.9ZM483 619.09L473.15 643.09H493.1L483 619.09Z"
    fill="#184D9D" />
</svg>